<?xml version="1.0" encoding="UTF-8"?>
<svg width="2000" height="1000" viewBox="0 0 2000 1000" xmlns="http://www.w3.org/2000/svg">
    <defs>
        <!-- 云彩的渐变效果 -->
        <linearGradient id="cloudGradient" x1="0%" y1="0%" x2="100%" y2="0%">
            <stop offset="0%" style="stop-color:rgba(255,255,255,0.1)" />
            <stop offset="50%" style="stop-color:rgba(255,255,255,0.2)" />
            <stop offset="100%" style="stop-color:rgba(255,255,255,0.1)" />
        </linearGradient>

        <!-- 云彩的发光效果 -->
        <filter id="cloudGlow" x="-50%" y="-50%" width="200%" height="200%">
            <feGaussianBlur in="SourceGraphic" stdDeviation="15" result="blur" />
            <feComposite in="SourceGraphic" in2="blur" operator="over" />
        </filter>

        <!-- 云彩的形状 -->
        <g id="cloudShape">
            <path d="M0,50 
                     C20,40 40,40 60,50 
                     C80,60 100,60 120,50 
                     C140,40 160,40 180,50 
                     C200,60 220,60 240,50 
                     L240,100 L0,100 Z" 
                  fill="url(#cloudGradient)" />
        </g>
    </defs>

    <!-- 第一层云 -->
    <g filter="url(#cloudGlow)" opacity="0.3">
        <use href="#cloudShape" transform="translate(0,100) scale(2)" />
        <use href="#cloudShape" transform="translate(400,150) scale(2.5)" />
        <use href="#cloudShape" transform="translate(800,50) scale(2)" />
        <use href="#cloudShape" transform="translate(1200,200) scale(2.5)" />
        <use href="#cloudShape" transform="translate(1600,100) scale(2)" />
    </g>

    <!-- 第二层云 -->
    <g filter="url(#cloudGlow)" opacity="0.2">
        <use href="#cloudShape" transform="translate(200,300) scale(1.5)" />
        <use href="#cloudShape" transform="translate(600,250) scale(2)" />
        <use href="#cloudShape" transform="translate(1000,350) scale(1.5)" />
        <use href="#cloudShape" transform="translate(1400,300) scale(2)" />
        <use href="#cloudShape" transform="translate(1800,250) scale(1.5)" />
    </g>

    <!-- 第三层云 -->
    <g filter="url(#cloudGlow)" opacity="0.1">
        <use href="#cloudShape" transform="translate(100,500) scale(1)" />
        <use href="#cloudShape" transform="translate(500,450) scale(1.5)" />
        <use href="#cloudShape" transform="translate(900,550) scale(1)" />
        <use href="#cloudShape" transform="translate(1300,500) scale(1.5)" />
        <use href="#cloudShape" transform="translate(1700,450) scale(1)" />
    </g>
</svg> 